<svg width="14" height="13" viewBox="0 0 14 13" fill="none" xmlns="http://www.w3.org/2000/svg">
<g clip-path="url(#clip0_832_162)">
<path d="M11.8138 5.98541L6.83585 10.9633C6.22602 11.5732 5.39891 11.9158 4.53648 11.9158C3.67404 11.9158 2.84693 11.5732 2.2371 10.9633C1.62727 10.3535 1.28467 9.52639 1.28467 8.66396C1.28467 7.80152 1.62727 6.97441 2.2371 6.36458L7.21502 1.38666C7.62157 0.980109 8.17298 0.751709 8.74793 0.751709C9.32289 0.751709 9.8743 0.980109 10.2809 1.38666C10.6874 1.79322 10.9158 2.34463 10.9158 2.91958C10.9158 3.49454 10.6874 4.04594 10.2809 4.4525L5.29752 9.43041C5.09424 9.63369 4.81854 9.74789 4.53106 9.74789C4.24358 9.74789 3.96788 9.63369 3.7646 9.43041C3.56132 9.22714 3.44712 8.95143 3.44712 8.66396C3.44712 8.37648 3.56132 8.10077 3.7646 7.8975L8.36335 3.30416" stroke="black" stroke-width="1.33333" stroke-linecap="round" stroke-linejoin="round"/>
</g>
<defs>
<clipPath id="clip0_832_162">
<rect width="13" height="13" fill="white" transform="translate(0.200195)"/>
</clipPath>
</defs>
</svg>
