<svg width="35" height="36" viewBox="0 0 35 36" fill="none" xmlns="http://www.w3.org/2000/svg">
<g filter="url(#filter0_d_1098_182)">
<circle cx="17.5" cy="17.5" r="13.5" fill="white"/>
</g>
<path d="M13 20.4314H15.2857V24H13V20.4314Z" fill="black"/>
<path d="M13 17.1176H15.2857V20.4314H13V17.1176Z" fill="black"/>
<path d="M13 13.549H15.2857V17.1176H13V13.549Z" fill="black"/>
<path d="M13 11.7435C13 11.3329 13.3731 11 13.8333 11H14.4524C14.9126 11 15.2857 11.3329 15.2857 11.7435V12.8056C15.2857 13.2162 14.9126 13.549 14.4524 13.549H13.8333C13.3731 13.549 13 13.2162 13 12.8056V11.7435Z" fill="black"/>
<path d="M14.4286 11H15.2857L15.2857 13.549L14.4286 13.549V11Z" fill="black"/>
<path d="M13 12.7843H15.2857V13.549H13V12.7843Z" fill="black"/>
<path d="M15.2857 11.7435C15.2857 11.3329 15.6588 11 16.119 11H18.7381C19.1983 11 19.5714 11.3329 19.5714 11.7435V12.8056C19.5714 13.2162 19.1983 13.549 18.7381 13.549H16.119C15.6588 13.549 15.2857 13.2162 15.2857 12.8056V11.7435Z" fill="black"/>
<path d="M15.2857 11.7435C15.2857 11.3329 15.6588 11 16.119 11H18.7381C19.1983 11 19.5714 11.3329 19.5714 11.7435V12.8056C19.5714 13.2162 19.1983 13.549 18.7381 13.549H16.119C15.6588 13.549 15.2857 13.2162 15.2857 12.8056V11.7435Z" fill="black"/>
<path d="M19.5714 14.2925C19.5714 13.8819 19.9445 13.549 20.4048 13.549H22.1667C22.6269 13.549 23 13.8819 23 14.2925V16.3742C23 16.7848 22.6269 17.1176 22.1667 17.1176H20.4048C19.9445 17.1176 19.5714 16.7848 19.5714 16.3742V14.2925Z" fill="black"/>
<path d="M19.5714 14.2925C19.5714 13.8819 19.9445 13.549 20.4048 13.549H22.1667C22.6269 13.549 23 13.8819 23 14.2925V16.3742C23 16.7848 22.6269 17.1176 22.1667 17.1176H20.4048C19.9445 17.1176 19.5714 16.7848 19.5714 16.3742V14.2925Z" fill="black"/>
<path d="M19.5714 13.549H21.5714V17.1176H19.5714V13.549Z" fill="black"/>
<path d="M15 11H18.4286V13.549H15V11Z" fill="black"/>
<path d="M15.2857 12.5082C15.2857 12.0976 15.6588 11.7647 16.119 11.7647H18.7381C19.1983 11.7647 19.5714 12.0976 19.5714 12.5082V12.8056C19.5714 13.2162 19.1983 13.549 18.7381 13.549H16.119C15.6588 13.549 15.2857 13.2162 15.2857 12.8056L15.2857 12.5082Z" fill="black"/>
<path d="M15.2857 17.1176L19.5714 17.1176L19.5714 19.4118H15.2857L15.2857 17.1176Z" fill="black"/>
<path d="M19.5714 20.1552C19.5714 19.7446 19.9445 19.4118 20.4048 19.4118H22.1667C22.6269 19.4118 23 19.7446 23 20.1552V23.2565C23 23.6671 22.6269 24 22.1667 24H20.4048C19.9445 24 19.5714 23.6671 19.5714 23.2565V20.1552Z" fill="black"/>
<path d="M19.5714 19.4118L21.5714 19.4118V24H19.5714L19.5714 19.4118Z" fill="black"/>
<defs>
<filter id="filter0_d_1098_182" x="0" y="0.3" width="35" height="35" filterUnits="userSpaceOnUse" color-interpolation-filters="sRGB">
<feFlood flood-opacity="0" result="BackgroundImageFix"/>
<feColorMatrix in="SourceAlpha" type="matrix" values="0 0 0 0 0 0 0 0 0 0 0 0 0 0 0 0 0 0 127 0" result="hardAlpha"/>
<feOffset dy="0.3"/>
<feGaussianBlur stdDeviation="2"/>
<feComposite in2="hardAlpha" operator="out"/>
<feColorMatrix type="matrix" values="0 0 0 0 0 0 0 0 0 0 0 0 0 0 0 0 0 0 0.25 0"/>
<feBlend mode="normal" in2="BackgroundImageFix" result="effect1_dropShadow_1098_182"/>
<feBlend mode="normal" in="SourceGraphic" in2="effect1_dropShadow_1098_182" result="shape"/>
</filter>
</defs>
</svg>
