<svg width="8" height="8" viewBox="0 0 8 8" fill="none" xmlns="http://www.w3.org/2000/svg">
<g clip-path="url(#clip0_945_325)">
<path d="M7.6665 1.33337V3.33337H5.6665" stroke="black" stroke-width="0.75" stroke-linecap="round" stroke-linejoin="round"/>
<path d="M0.333496 6.66663V4.66663H2.3335" stroke="black" stroke-width="0.75" stroke-linecap="round" stroke-linejoin="round"/>
<path d="M1.17016 2.99994C1.33922 2.52221 1.62654 2.09508 2.00532 1.75842C2.3841 1.42176 2.84198 1.18653 3.33626 1.0747C3.83053 0.962861 4.34508 0.978058 4.83189 1.11887C5.31871 1.25968 5.76191 1.52152 6.12016 1.87994L7.66683 3.33328M0.333496 4.66661L1.88016 6.11994C2.23841 6.47837 2.68162 6.74021 3.16843 6.88102C3.65524 7.02183 4.16979 7.03703 4.66407 6.92519C5.15834 6.81336 5.61623 6.57813 5.99501 6.24147C6.37379 5.90481 6.66111 5.47768 6.83016 4.99994" stroke="black" stroke-width="0.75" stroke-linecap="round" stroke-linejoin="round"/>
</g>
<defs>
<clipPath id="clip0_945_325">
<rect width="8" height="8" fill="white"/>
</clipPath>
</defs>
</svg>
