<svg width="9" height="12" viewBox="0 0 9 12" fill="none" xmlns="http://www.w3.org/2000/svg">
<path d="M0 8.70588H2.05714V12H0V8.70588Z" fill="black"/>
<path d="M0 5.64706H2.05714V8.70588H0V5.64706Z" fill="black"/>
<path d="M0 2.35294H2.05714V5.64706H0V2.35294Z" fill="black"/>
<path d="M0 0.686275C0 0.307256 0.335786 0 0.75 0H1.30714C1.72136 0 2.05714 0.307256 2.05714 0.686275V1.66667C2.05714 2.04569 1.72136 2.35294 1.30714 2.35294H0.749999C0.335786 2.35294 0 2.04569 0 1.66667V0.686275Z" fill="black"/>
<path d="M1.28571 0H2.05714L2.05714 2.35294L1.28571 2.35294V0Z" fill="black"/>
<path d="M0 1.64706H2.05714V2.35294H0V1.64706Z" fill="black"/>
<path d="M2.05714 0.686275C2.05714 0.307256 2.39293 0 2.80714 0H5.16428C5.5785 0 5.91428 0.307256 5.91428 0.686275V1.66667C5.91428 2.04569 5.5785 2.35294 5.16428 2.35294H2.80714C2.39293 2.35294 2.05714 2.04569 2.05714 1.66667V0.686275Z" fill="black"/>
<path d="M2.05714 0.686275C2.05714 0.307256 2.39293 0 2.80714 0H5.16428C5.5785 0 5.91428 0.307256 5.91428 0.686275V1.66667C5.91428 2.04569 5.5785 2.35294 5.16428 2.35294H2.80714C2.39293 2.35294 2.05714 2.04569 2.05714 1.66667V0.686275Z" fill="black"/>
<path d="M5.91429 3.03922C5.91429 2.6602 6.25007 2.35294 6.66429 2.35294H8.25C8.66421 2.35294 9 2.6602 9 3.03922V4.96079C9 5.33981 8.66421 5.64706 8.25 5.64706H6.66429C6.25007 5.64706 5.91429 5.33981 5.91429 4.96079V3.03922Z" fill="black"/>
<path d="M5.91429 3.03922C5.91429 2.6602 6.25007 2.35294 6.66429 2.35294H8.25C8.66421 2.35294 9 2.6602 9 3.03922V4.96079C9 5.33981 8.66421 5.64706 8.25 5.64706H6.66429C6.25007 5.64706 5.91429 5.33981 5.91429 4.96079V3.03922Z" fill="black"/>
<path d="M5.91429 2.35294H7.71429V5.64706H5.91429V2.35294Z" fill="black"/>
<path d="M1.8 0H4.88571V2.35294H1.8V0Z" fill="black"/>
<path d="M2.05714 1.39216C2.05714 1.01314 2.39293 0.705882 2.80714 0.705882H5.16428C5.5785 0.705882 5.91428 1.01314 5.91428 1.39216V1.66667C5.91428 2.04569 5.5785 2.35294 5.16428 2.35294H2.80714C2.39293 2.35294 2.05714 2.04569 2.05714 1.66667L2.05714 1.39216Z" fill="black"/>
<path d="M2.05714 5.64706L5.91429 5.64706L5.91428 7.7647H2.05714L2.05714 5.64706Z" fill="black"/>
<path d="M5.91429 8.45098C5.91429 8.07196 6.25007 7.7647 6.66429 7.7647H8.25C8.66421 7.7647 9 8.07196 9 8.45098V11.3137C9 11.6927 8.66421 12 8.25 12H6.66429C6.25007 12 5.91429 11.6927 5.91429 11.3137V8.45098Z" fill="black"/>
<path d="M5.91428 7.7647L7.71429 7.7647V12H5.91429L5.91428 7.7647Z" fill="black"/>
</svg>
