<svg width="12" height="12" viewBox="0 0 12 12" fill="none" xmlns="http://www.w3.org/2000/svg">
<g clip-path="url(#clip0_945_459)">
<path d="M8.50002 6.50006L6.50002 11.0001C6.10219 11.0001 5.72066 10.842 5.43935 10.5607C5.15805 10.2794 5.00002 9.89788 5.00002 9.50006V7.50006H2.17002C2.02506 7.5017 1.88148 7.47181 1.74923 7.41245C1.61698 7.35309 1.49921 7.26569 1.40409 7.1563C1.30896 7.04691 1.23876 6.91815 1.19835 6.77893C1.15793 6.63972 1.14826 6.49338 1.17002 6.35006L1.86002 1.85006C1.89618 1.61161 2.0173 1.39426 2.20106 1.23806C2.38483 1.08186 2.61885 0.997332 2.86002 1.00006H8.50002M8.50002 6.50006V1.00006M8.50002 6.50006H9.83502C10.118 6.50506 10.393 6.40599 10.6077 6.22165C10.8225 6.03731 10.9621 5.78053 11 5.50006V2.00006C10.9621 1.71959 10.8225 1.46281 10.6077 1.27847C10.393 1.09413 10.118 0.995054 9.83502 1.00006H8.50002" stroke="black" stroke-width="0.75" stroke-linecap="round" stroke-linejoin="round"/>
</g>
<defs>
<clipPath id="clip0_945_459">
<rect width="12" height="12" fill="white"/>
</clipPath>
</defs>
</svg>
